<?xml version="1.0" encoding="UTF-8"?><svg id="b" xmlns="http://www.w3.org/2000/svg" viewBox="0 0 402 252"><defs><style>.c{fill:#fff;}.d{fill:#e80004;}.e{fill:#fd0602;}</style></defs><path class="e" d="M56.74,72h-25.74V20h24.93c10.55,0,17.04,4.87,17.04,13.5,0,6.27-3.69,10.4-8.78,11.8,6.2,1.4,9.96,6.64,9.96,12.54,0,8.78-6.27,14.16-17.41,14.16ZM52.19,31h-7.19v9h7.19c3.48,0,5.37-1.45,5.37-4.43s-1.89-4.57-5.37-4.57ZM52.95,51h-7.95v9h8.02c3.45,0,5.2-1.41,5.2-4.36s-1.9-4.64-5.27-4.64Z"/><path class="e" d="M84,20h15v30.28c0,5.4,2.44,8.81,7.93,8.81s8.07-3.41,8.07-8.81v-30.28h14v30.28c0,14.88-10.38,22.43-22.91,22.43s-22.09-7.55-22.09-22.43v-30.28Z"/><path class="e" d="M188.72,45.96c0,15.05-10.55,26.04-27.14,26.04h-20.58V20h20.58c16.6,0,27.14,10.7,27.14,25.96ZM161.07,59c8.43,0,13.72-4.77,13.72-13.43s-5.3-13.57-13.72-13.57h-5.07v27h5.07Z"/><path class="e" d="M247.72,45.96c0,15.05-10.55,26.04-27.14,26.04h-20.58V20h20.58c16.6,0,27.14,10.7,27.14,25.96ZM219.07,59c8.43,0,13.72-4.77,13.72-13.43s-5.3-13.57-13.72-13.57h-5.07v27h5.07Z"/><polygon class="e" points="253.12 20 270.17 20 279.61 40.06 289.06 20 305.88 20 287 55.48 287 72 272 72 272 55.48 253.12 20"/><polygon class="e" points="313.65 40 317.23 19 331.97 19 323.41 40 313.65 40"/><path class="e" d="M362.96,73.07c-11.86,0-21.08-5.66-21.68-17.07h15.79c.3,4,2.64,5.36,5.36,5.36s4.68-1.36,4.68-3.85c-.07-8.54-25.91-4.53-25.68-23.04,0-10.42,8.69-16.01,19.94-16.01,12.24,0,20.24,5.97,20.77,16.54h-16.09c-.15-3.32-2.19-4.83-4.91-4.83-2.19-.08-3.93,1.21-3.93,3.78,0,7.93,25.61,5.36,25.61,22.43,0,9.37-7.25,16.69-19.87,16.69Z"/><rect class="e" x="186" y="94" width="39" height="140"/><polygon class="e" points="247.9 94 292.25 94 316.8 148.01 341.35 94 385.1 94 336 189.52 336 234 297 234 297 189.52 247.9 94"/><polygon class="d" points="396 246 396 240 12 240 12 12 390 12 390 246 396 246 396 240 396 246 402 246 402 0 0 0 0 252 402 252 402 246 396 246"/><path class="c" d="M59.59,142.46l13.86,13.9c2.38-2.28,4.44-4.26,5.99-5.75l-13.98-14.02-1.71-7.58-12.48-7.58-3.42,3.43-3.42,3.42,7.58,12.48,7.58,1.71Z"/><path class="c" d="M101.72,165.1l20.5,20.43c3.78,3.78,3.78,9.9,0,13.68-3.78,3.78-9.9,3.78-13.68,0l-20.5-20.43,13.68-13.68Z"/><path class="c" d="M118.57,153.01c7.06-6.4,8.24-13.68,6.66-19.82-.05-.49-.16-.9-.59-1.2l-1.42-1.16c-.25-.23-.58-.34-.91-.31-.33.03-.64.2-.83.48l-8.17,10.62c-.23.31-.6.49-.98.48l-2.97.22c-.25,0-.5-.1-.7-.26l-5.73-4.85c-.23-.19-.39-.46-.43-.76l-.36-2.69c-.04-.3.03-.6.21-.84l7.65-10.39c.35-.48.28-1.14-.15-1.54l-1.86-1.45c-.36-.34-.78-.29-1.34-.18-5.28,1.04-14.3,6.16-16.59,13.23-2.02,6.22-1.31,10.61-1.31,10.61,0,3.51-1.15,6.89-2.57,8.3l-39.85,38.26-.23.22c-3.29,3.29-3.29,8.63-.11,11.81,3.18,3.18,8.6,3.26,11.89-.03.15-.15.3-.31.44-.47l38.43-41.54c4.73-4.21,14.09.27,21.81-6.73Z"/><path class="e" d="M158.48,163.9c0,40.51-28.4,70.1-73.08,70.1H30V94h55.4c44.68,0,73.08,28.79,73.08,69.9Z"/><path class="c" d="M119.07,152.76c7.06-6.4,8.24-13.68,6.66-19.82-.05-.49-.16-.9-.59-1.2l-1.42-1.16c-.25-.23-.58-.34-.91-.31-.33.03-.64.2-.83.48l-8.17,10.62c-.23.31-.6.49-.98.48l-2.97.22c-.25,0-.5-.1-.7-.26l-5.73-4.85c-.23-.19-.39-.46-.43-.76l-.36-2.69c-.04-.3.03-.6.21-.84l7.65-10.39c.35-.48.28-1.14-.15-1.54l-1.86-1.45c-.36-.34-.78-.29-1.34-.18-5.28,1.04-14.3,6.16-16.59,13.23-2.02,6.22-1.31,10.61-1.31,10.61,0,3.51-1.15,6.89-2.57,8.3l-39.85,38.26-.23.22c-3.29,3.29-3.29,8.63-.11,11.81,3.18,3.18,8.6,3.26,11.89-.03.15-.15.3-.31.44-.47l38.43-41.54c4.73-4.21,14.09.27,21.81-6.73Z"/><path class="c" d="M60.09,142.21l13.86,13.9c2.38-2.28,4.44-4.26,5.99-5.75l-13.98-14.02-1.71-7.58-12.48-7.58-3.42,3.43-3.42,3.42,7.58,12.48,7.58,1.71Z"/><path class="c" d="M102.22,164.85l20.5,20.43c3.78,3.78,3.78,9.9,0,13.68-3.78,3.78-9.9,3.78-13.68,0l-20.5-20.43,13.68-13.68Z"/></svg>